# xmcd
#
# Track frame offsets:
#	150
#	16510
#	32490
#	47795
#	61627
#	76740
#	93695
#	110975
#	127812
#	143720
#	158880
#	173282
#	189642
#	204957
#	221192
#	235575
#	251090
#	264652
#	280552
#	297400
#
# Disc length: 4182 seconds
#
# Revision: 2
# Processed by: cddbd v1.5.2PL0 Copyright (c) Steve Scherf et al.
# Submitted via: audiograbber 1.83.01
#
DISCID=0e105414
DTITLE=Various Artist - MMCOU101
DYEAR=1997
DGENRE=Karaoke Country
TTITLE0=Brady Seals - Another You Another Me
TTITLE1=George Strait - Famous Last Words Of A Fool
TTITLE2=Reba McEntire - Why I Haven't I Heard From You
TTITLE3=Brooks and Dunn - Hard Workin' Man
TTITLE4=Alan Jackson - Summertime Blues
TTITLE5=John Berry - She's Taken A Shine
TTITLE6=Vince Gill - Pretty Little Adriana
TTITLE7=Judds, The - Change Of Heart
TTITLE8=Joe Diffie - Honky Tonk Attitude
TTITLE9=Anne Murray - Could I Have This Dance
TTITLE10=Garth Brooks - Ain't Going Down ('Til The Sun Comes Up)
TTITLE11=Dwight Yoakam - Fast As You
TTITLE12=Wynonna Judd - Girls With Guitars
TTITLE13=Tractors, The - Baby Likes To Rock It
TTITLE14=George Strait - Check Yes Or No
TTITLE15=Rednex, The - Cotton Eye Joe
TTITLE16=Joe Diffie - Third Rock From The Sun
TTITLE17=Doug Supernaw - Red and Rio Grande
TTITLE18=Paul Brandt - I Do
TTITLE19=Patty Loveless - Blame It On You Heart
EXTD=Karaoke Club Pack Disc 1 of 5
EXTT0=
EXTT1=
EXTT2=
EXTT3=
EXTT4=
EXTT5=
EXTT6=
EXTT7=
EXTT8=
EXTT9=
EXTT10=
EXTT11=
EXTT12=
EXTT13=
EXTT14=
EXTT15=
EXTT16=
EXTT17=
EXTT18=
EXTT19=
PLAYORDER=
